<svg xmlns="http://www.w3.org/2000/svg" viewBox="0 0 160 44" width="160" height="44">
  <path d="M 18.0 10 L 150.0 10 L 158 18.0 L 158 34.0 L 150.0 42 L 18.0 42 L 10 34.0 L 10 18.0 Z" fill="#A31417"/>
  <path d="M 14.0 6 L 146.0 6 L 154 14.0 L 154 30.0 L 146.0 38 L 14.0 38 L 6 30.0 L 6 14.0 Z" fill="#000000" stroke="#ffffff" stroke-width="3" stroke-linejoin="round"/>
  <path d="M 14.0 10 L 146.0 10 L 150 14.0 L 150 30.0 L 146.0 34 L 14.0 34 L 10 30.0 L 10 14.0 Z" fill="none" stroke="#ffffff" stroke-width="1" opacity="0.9"/>
  <path d="M 11 10 L 14 10 L 15 11 L 15 33 L 14 34 L 11 34 L 10 33 L 10 11 Z" fill="#E5191C"/>
  <path d="M 20.00,17.50 L 21.06,20.54 L 24.28,20.61 L 21.71,22.56 L 22.65,25.64 L 20.00,23.80 L 17.35,25.64 L 18.29,22.56 L 15.72,20.61 L 18.94,20.54 Z" fill="#ffffff"/>

</svg>