<svg xmlns="http://www.w3.org/2000/svg" viewBox="0 0 180 80" width="180" height="80">
  <path d="M 6.0 0 L 174.0 0 L 180 6.0 L 180 74.0 L 174.0 80 L 6.0 80 L 0 74.0 L 0 6.0 Z" fill="#ffffff" shape-rendering="crispEdges"/>
  <path d="M 6.0 5.0 L 174.0 5.0 L 175.0 6.0 L 175.0 74.0 L 174.0 75.0 L 6.0 75.0 L 5.0 74.0 L 5.0 6.0 Z" fill="#000000" shape-rendering="crispEdges"/>
  <path d="M 12.00,8.00 L 12.94,10.71 L 15.80,10.76 L 13.52,12.49 L 14.35,15.24 L 12.00,13.60 L 9.65,15.24 L 10.48,12.49 L 8.20,10.76 L 11.06,10.71 Z" fill="none" stroke="#ffffff" stroke-width="1.2"/>
  <path d="M 168.00,8.00 L 168.94,10.71 L 171.80,10.76 L 169.52,12.49 L 170.35,15.24 L 168.00,13.60 L 165.65,15.24 L 166.48,12.49 L 164.20,10.76 L 167.06,10.71 Z" fill="#E5191C"/>

</svg>