<svg xmlns="http://www.w3.org/2000/svg" viewBox="0 0 180 80" width="180" height="80">
  <rect x="0" y="0" width="180" height="80" fill="#000000"/>
  <path d="M 0.00 6.00 L 3.21 3.12 L 6.43 6.00 L 9.64 9.21 L 12.86 6.00 L 16.07 3.75 L 19.29 6.00 L 22.50 9.36 L 25.71 6.00 L 28.93 3.53 L 32.14 6.00 L 35.36 8.80 L 38.57 6.00 L 41.79 2.61 L 45.00 6.00 L 48.21 8.52 L 51.43 6.00 L 54.64 2.57 L 57.86 6.00 L 61.07 8.67 L 64.29 6.00 L 67.50 2.63 L 70.71 6.00 L 73.93 9.33 L 77.14 6.00 L 80.36 3.32 L 83.57 6.00 L 86.79 7.91 L 90.00 6.00 L 93.21 2.74 L 96.43 6.00 L 99.64 9.07 L 102.86 6.00 L 106.07 3.71 L 109.29 6.00 L 112.50 7.68 L 115.71 6.00 L 118.93 3.61 L 122.14 6.00 L 125.36 8.74 L 128.57 6.00 L 131.79 4.38 L 135.00 6.00 L 138.21 9.41 L 141.43 6.00 L 144.64 4.15 L 147.86 6.00 L 151.07 8.94 L 154.29 6.00 L 157.50 2.78 L 160.71 6.00 L 163.93 9.27 L 167.14 6.00 L 170.36 3.09 L 173.57 6.00 L 176.79 7.93 L 180.00 6.00 L 180 0 L 0 0 Z" fill="#E5191C"/>
  <path d="M 180.00 74.00 L 176.79 70.94 L 173.57 74.00 L 170.36 75.65 L 167.14 74.00 L 163.93 70.74 L 160.71 74.00 L 157.50 76.14 L 154.29 74.00 L 151.07 70.66 L 147.86 74.00 L 144.64 77.02 L 141.43 74.00 L 138.21 72.42 L 135.00 74.00 L 131.79 77.10 L 128.57 74.00 L 125.36 71.74 L 122.14 74.00 L 118.93 76.62 L 115.71 74.00 L 112.50 71.37 L 109.29 74.00 L 106.07 76.55 L 102.86 74.00 L 99.64 70.87 L 96.43 74.00 L 93.21 75.90 L 90.00 74.00 L 86.79 70.67 L 83.57 74.00 L 80.36 77.05 L 77.14 74.00 L 73.93 70.54 L 70.71 74.00 L 67.50 76.99 L 64.29 74.00 L 61.07 71.28 L 57.86 74.00 L 54.64 75.76 L 51.43 74.00 L 48.21 71.23 L 45.00 74.00 L 41.79 77.28 L 38.57 74.00 L 35.36 71.00 L 32.14 74.00 L 28.93 75.59 L 25.71 74.00 L 22.50 70.62 L 19.29 74.00 L 16.07 76.31 L 12.86 74.00 L 9.64 71.23 L 6.43 74.00 L 3.21 76.23 L 0.00 74.00 L 0 80 L 180 80 Z" fill="#E5191C"/>
  <path d="M 12.00 8.00 L 14.79 6.96 L 17.57 8.00 L 20.36 9.11 L 23.14 8.00 L 25.93 6.71 L 28.71 8.00 L 31.50 8.73 L 34.29 8.00 L 37.07 6.60 L 39.86 8.00 L 42.64 9.01 L 45.43 8.00 L 48.21 7.29 L 51.00 8.00 L 53.79 9.34 L 56.57 8.00 L 59.36 7.03 L 62.14 8.00 L 64.93 8.93 L 67.71 8.00 L 70.50 6.63 L 73.29 8.00 L 76.07 9.11 L 78.86 8.00 L 81.64 7.14 L 84.43 8.00 L 87.21 9.05 L 90.00 8.00 L 92.79 7.16 L 95.57 8.00 L 98.36 9.28 L 101.14 8.00 L 103.93 6.78 L 106.71 8.00 L 109.50 9.31 L 112.29 8.00 L 115.07 6.99 L 117.86 8.00 L 120.64 8.69 L 123.43 8.00 L 126.21 7.05 L 129.00 8.00 L 131.79 8.80 L 134.57 8.00 L 137.36 6.90 L 140.14 8.00 L 142.93 8.83 L 145.71 8.00 L 148.50 6.68 L 151.29 8.00 L 154.07 9.18 L 156.86 8.00 L 159.64 7.12 L 162.43 8.00 L 165.21 8.84 L 168.00 8.00" fill="none" stroke="#ffffff" stroke-width="1" opacity="0.8"/>
  <path d="M 12 4 L 168 4 L 176 12 L 176 68 L 168 76 L 12 76 L 4 68 L 4 12 Z" fill="none" stroke="#ffffff" stroke-width="1.5" opacity="0.55" stroke-linejoin="round"/>
  <path d="M 10.00,3.50 L 11.06,6.54 L 14.28,6.61 L 11.71,8.56 L 12.65,11.64 L 10.00,9.80 L 7.35,11.64 L 8.29,8.56 L 5.72,6.61 L 8.94,6.54 Z" fill="#ffffff"/>

</svg>