<svg xmlns="http://www.w3.org/2000/svg" viewBox="0 0 160 30" width="160" height="30">
  <path d="M 13.0 8 L 153.0 8 L 158 13.0 L 158 23.0 L 153.0 28 L 13.0 28 L 8 23.0 L 8 13.0 Z" fill="#A31417"/>
  <path d="M 10.0 5 L 150.0 5 L 155 10.0 L 155 20.0 L 150.0 25 L 10.0 25 L 5 20.0 L 5 10.0 Z" fill="#000000" stroke="#ffffff" stroke-width="2.5" stroke-linejoin="round"/>
  <path d="M 10.0 8 L 150.0 8 L 152 10.0 L 152 20.0 L 150.0 22 L 10.0 22 L 8 20.0 L 8 10.0 Z" fill="none" stroke="#ffffff" stroke-width="1" opacity="0.9"/>
  <path d="M 9 8 L 11 8 L 12 9 L 12 21 L 11 22 L 9 22 L 8 21 L 8 9 Z" fill="#E5191C"/>
  <path d="M 16.00,11.50 L 16.82,13.87 L 19.33,13.92 L 17.33,15.43 L 18.06,17.83 L 16.00,16.40 L 13.94,17.83 L 14.67,15.43 L 12.67,13.92 L 15.18,13.87 Z" fill="#ffffff"/>

</svg>