<svg xmlns="http://www.w3.org/2000/svg" viewBox="0 0 240 96" width="240" height="96">
  <rect x="0" y="0" width="240" height="96" fill="#000000"/>
  <path d="M 0.00 7.00 L 3.33 2.83 L 6.67 7.00 L 10.00 9.40 L 13.33 7.00 L 16.67 4.39 L 20.00 7.00 L 23.33 10.87 L 26.67 7.00 L 30.00 3.73 L 33.33 7.00 L 36.67 10.39 L 40.00 7.00 L 43.33 4.11 L 46.67 7.00 L 50.00 9.55 L 53.33 7.00 L 56.67 2.73 L 60.00 7.00 L 63.33 11.43 L 66.67 7.00 L 70.00 4.57 L 73.33 7.00 L 76.67 10.43 L 80.00 7.00 L 83.33 4.39 L 86.67 7.00 L 90.00 11.49 L 93.33 7.00 L 96.67 3.60 L 100.00 7.00 L 103.33 9.71 L 106.67 7.00 L 110.00 3.07 L 113.33 7.00 L 116.67 9.16 L 120.00 7.00 L 123.33 4.73 L 126.67 7.00 L 130.00 11.42 L 133.33 7.00 L 136.67 2.56 L 140.00 7.00 L 143.33 10.16 L 146.67 7.00 L 150.00 4.82 L 153.33 7.00 L 156.67 10.56 L 160.00 7.00 L 163.33 3.04 L 166.67 7.00 L 170.00 10.46 L 173.33 7.00 L 176.67 2.57 L 180.00 7.00 L 183.33 10.95 L 186.67 7.00 L 190.00 3.58 L 193.33 7.00 L 196.67 10.27 L 200.00 7.00 L 203.33 3.08 L 206.67 7.00 L 210.00 10.93 L 213.33 7.00 L 216.67 3.04 L 220.00 7.00 L 223.33 10.36 L 226.67 7.00 L 230.00 3.22 L 233.33 7.00 L 236.67 11.45 L 240.00 7.00 L 240 0 L 0 0 Z" fill="#E5191C"/>
  <path d="M 240.00 89.00 L 236.67 86.87 L 233.33 89.00 L 230.00 91.15 L 226.67 89.00 L 223.33 84.64 L 220.00 89.00 L 216.67 93.29 L 213.33 89.00 L 210.00 86.57 L 206.67 89.00 L 203.33 91.68 L 200.00 89.00 L 196.67 86.16 L 193.33 89.00 L 190.00 92.74 L 186.67 89.00 L 183.33 86.00 L 180.00 89.00 L 176.67 92.00 L 173.33 89.00 L 170.00 85.94 L 166.67 89.00 L 163.33 93.11 L 160.00 89.00 L 156.67 85.57 L 153.33 89.00 L 150.00 92.53 L 146.67 89.00 L 143.33 86.29 L 140.00 89.00 L 136.67 91.04 L 133.33 89.00 L 130.00 86.85 L 126.67 89.00 L 123.33 92.15 L 120.00 89.00 L 116.67 85.60 L 113.33 89.00 L 110.00 92.84 L 106.67 89.00 L 103.33 84.59 L 100.00 89.00 L 96.67 93.43 L 93.33 89.00 L 90.00 85.65 L 86.67 89.00 L 83.33 92.71 L 80.00 89.00 L 76.67 85.44 L 73.33 89.00 L 70.00 91.29 L 66.67 89.00 L 63.33 85.80 L 60.00 89.00 L 56.67 92.11 L 53.33 89.00 L 50.00 85.08 L 46.67 89.00 L 43.33 93.44 L 40.00 89.00 L 36.67 85.30 L 33.33 89.00 L 30.00 93.16 L 26.67 89.00 L 23.33 85.76 L 20.00 89.00 L 16.67 91.03 L 13.33 89.00 L 10.00 86.17 L 6.67 89.00 L 3.33 93.05 L 0.00 89.00 L 0 96 L 240 96 Z" fill="#E5191C"/>
  <path d="M 16.00 10.00 L 18.89 8.44 L 21.78 10.00 L 24.67 11.26 L 27.56 10.00 L 30.44 8.57 L 33.33 10.00 L 36.22 11.20 L 39.11 10.00 L 42.00 8.82 L 44.89 10.00 L 47.78 11.74 L 50.67 10.00 L 53.56 8.21 L 56.44 10.00 L 59.33 10.97 L 62.22 10.00 L 65.11 8.46 L 68.00 10.00 L 70.89 11.57 L 73.78 10.00 L 76.67 9.19 L 79.56 10.00 L 82.44 11.33 L 85.33 10.00 L 88.22 9.03 L 91.11 10.00 L 94.00 11.33 L 96.89 10.00 L 99.78 8.83 L 102.67 10.00 L 105.56 11.65 L 108.44 10.00 L 111.33 8.83 L 114.22 10.00 L 117.11 10.94 L 120.00 10.00 L 122.89 8.72 L 125.78 10.00 L 128.67 11.07 L 131.56 10.00 L 134.44 8.86 L 137.33 10.00 L 140.22 11.74 L 143.11 10.00 L 146.00 8.95 L 148.89 10.00 L 151.78 11.21 L 154.67 10.00 L 157.56 8.50 L 160.44 10.00 L 163.33 11.77 L 166.22 10.00 L 169.11 9.06 L 172.00 10.00 L 174.89 11.33 L 177.78 10.00 L 180.67 8.91 L 183.56 10.00 L 186.44 10.93 L 189.33 10.00 L 192.22 8.91 L 195.11 10.00 L 198.00 10.89 L 200.89 10.00 L 203.78 8.59 L 206.67 10.00 L 209.56 11.01 L 212.44 10.00 L 215.33 8.64 L 218.22 10.00 L 221.11 10.87 L 224.00 10.00" fill="none" stroke="#ffffff" stroke-width="1" opacity="0.85"/>
  <path d="M 15 5 L 225 5 L 235 15 L 235 81 L 225 91 L 15 91 L 5 81 L 5 15 Z" fill="none" stroke="#ffffff" stroke-width="1.5" opacity="0.6" stroke-linejoin="round"/>
  <path d="M 12.00,4.50 L 13.29,8.22 L 17.23,8.30 L 14.09,10.68 L 15.23,14.45 L 12.00,12.20 L 8.77,14.45 L 9.91,10.68 L 6.77,8.30 L 10.71,8.22 Z" fill="#ffffff"/>
  <path d="M 228.00,80.50 L 229.29,84.22 L 233.23,84.30 L 230.09,86.68 L 231.23,90.45 L 228.00,88.20 L 224.77,90.45 L 225.91,86.68 L 222.77,84.30 L 226.71,84.22 Z" fill="#ffffff"/>

</svg>