<svg xmlns="http://www.w3.org/2000/svg" viewBox="0 0 240 96" width="240" height="96">
  <path d="M 8.0 0 L 232.0 0 L 240 8.0 L 240 88.0 L 232.0 96 L 8.0 96 L 0 88.0 L 0 8.0 Z" fill="#ffffff" shape-rendering="crispEdges"/>
  <path d="M 8.0 6.0 L 232.0 6.0 L 234.0 8.0 L 234.0 88.0 L 232.0 90.0 L 8.0 90.0 L 6.0 88.0 L 6.0 8.0 Z" fill="#000000" shape-rendering="crispEdges"/>
  <path d="M 14.00,9.00 L 15.18,12.38 L 18.76,12.45 L 15.90,14.62 L 16.94,18.05 L 14.00,16.00 L 11.06,18.05 L 12.10,14.62 L 9.24,12.45 L 12.82,12.38 Z" fill="none" stroke="#ffffff" stroke-width="1.5"/>
  <path d="M 226.00,9.00 L 227.18,12.38 L 230.76,12.45 L 227.90,14.62 L 228.94,18.05 L 226.00,16.00 L 223.06,18.05 L 224.10,14.62 L 221.24,12.45 L 224.82,12.38 Z" fill="#E5191C"/>
  <path d="M 226.00,78.00 L 226.94,80.71 L 229.80,80.76 L 227.52,82.49 L 228.35,85.24 L 226.00,83.60 L 223.65,85.24 L 224.48,82.49 L 222.20,80.76 L 225.06,80.71 Z" fill="none" stroke="#ffffff" stroke-width="1.2"/>

</svg>